<svg width="25" height="24" viewBox="0 0 25 24" fill="none" xmlns="http://www.w3.org/2000/svg">
<g id="menu_book">
<mask id="mask0_22_367" style="mask-type:alpha" maskUnits="userSpaceOnUse" x="0" y="0" width="25" height="24">
<rect id="Bounding box" x="0.5" width="24" height="24" fill="#D9D9D9"/>
</mask>
<g mask="url(#mask0_22_367)">
<path id="menu_book_2" d="M7 16C7.78333 16 8.54583 16.0875 9.2875 16.2625C10.0292 16.4375 10.7667 16.7 11.5 17.05V7.2C10.8167 6.8 10.0917 6.5 9.325 6.3C8.55833 6.1 7.78333 6 7 6C6.4 6 5.80417 6.05833 5.2125 6.175C4.62083 6.29167 4.05 6.46667 3.5 6.7V16.6C4.08333 16.4 4.6625 16.25 5.2375 16.15C5.8125 16.05 6.4 16 7 16ZM13.5 17.05C14.2333 16.7 14.9708 16.4375 15.7125 16.2625C16.4542 16.0875 17.2167 16 18 16C18.6 16 19.1875 16.05 19.7625 16.15C20.3375 16.25 20.9167 16.4 21.5 16.6V6.7C20.95 6.46667 20.3792 6.29167 19.7875 6.175C19.1958 6.05833 18.6 6 18 6C17.2167 6 16.4417 6.1 15.675 6.3C14.9083 6.5 14.1833 6.8 13.5 7.2V17.05ZM12.5 19.475C12.2667 19.475 12.0458 19.4458 11.8375 19.3875C11.6292 19.3292 11.4333 19.25 11.25 19.15C10.6 18.7667 9.91667 18.4792 9.2 18.2875C8.48333 18.0958 7.75 18 7 18C6.3 18 5.6125 18.0917 4.9375 18.275C4.2625 18.4583 3.61667 18.7167 3 19.05C2.65 19.2333 2.3125 19.225 1.9875 19.025C1.6625 18.825 1.5 18.5333 1.5 18.15V6.1C1.5 5.91667 1.54583 5.74167 1.6375 5.575C1.72917 5.40833 1.86667 5.28333 2.05 5.2C2.81667 4.8 3.61667 4.5 4.45 4.3C5.28333 4.1 6.13333 4 7 4C7.96667 4 8.9125 4.125 9.8375 4.375C10.7625 4.625 11.65 5 12.5 5.5C13.35 5 14.2375 4.625 15.1625 4.375C16.0875 4.125 17.0333 4 18 4C18.8667 4 19.7167 4.1 20.55 4.3C21.3833 4.5 22.1833 4.8 22.95 5.2C23.1333 5.28333 23.2708 5.40833 23.3625 5.575C23.4542 5.74167 23.5 5.91667 23.5 6.1V18.15C23.5 18.5333 23.3375 18.825 23.0125 19.025C22.6875 19.225 22.35 19.2333 22 19.05C21.3833 18.7167 20.7375 18.4583 20.0625 18.275C19.3875 18.0917 18.7 18 18 18C17.25 18 16.5167 18.0958 15.8 18.2875C15.0833 18.4792 14.4 18.7667 13.75 19.15C13.5667 19.25 13.3708 19.3292 13.1625 19.3875C12.9542 19.4458 12.7333 19.475 12.5 19.475ZM14.5 8.775C14.5 8.625 14.5542 8.47083 14.6625 8.3125C14.7708 8.15417 14.8917 8.05 15.025 8C15.5083 7.83333 15.9917 7.70833 16.475 7.625C16.9583 7.54167 17.4667 7.5 18 7.5C18.3333 7.5 18.6625 7.52083 18.9875 7.5625C19.3125 7.60417 19.6333 7.65833 19.95 7.725C20.1 7.75833 20.2292 7.84167 20.3375 7.975C20.4458 8.10833 20.5 8.25833 20.5 8.425C20.5 8.70833 20.4083 8.91667 20.225 9.05C20.0417 9.18333 19.8083 9.21667 19.525 9.15C19.2917 9.1 19.0458 9.0625 18.7875 9.0375C18.5292 9.0125 18.2667 9 18 9C17.5667 9 17.1417 9.04167 16.725 9.125C16.3083 9.20833 15.9083 9.31667 15.525 9.45C15.225 9.56667 14.9792 9.55833 14.7875 9.425C14.5958 9.29167 14.5 9.075 14.5 8.775ZM14.5 14.275C14.5 14.125 14.5542 13.9708 14.6625 13.8125C14.7708 13.6542 14.8917 13.55 15.025 13.5C15.5083 13.3333 15.9917 13.2083 16.475 13.125C16.9583 13.0417 17.4667 13 18 13C18.3333 13 18.6625 13.0208 18.9875 13.0625C19.3125 13.1042 19.6333 13.1583 19.95 13.225C20.1 13.2583 20.2292 13.3417 20.3375 13.475C20.4458 13.6083 20.5 13.7583 20.5 13.925C20.5 14.2083 20.4083 14.4167 20.225 14.55C20.0417 14.6833 19.8083 14.7167 19.525 14.65C19.2917 14.6 19.0458 14.5625 18.7875 14.5375C18.5292 14.5125 18.2667 14.5 18 14.5C17.5667 14.5 17.1417 14.5375 16.725 14.6125C16.3083 14.6875 15.9083 14.7917 15.525 14.925C15.225 15.0417 14.9792 15.0375 14.7875 14.9125C14.5958 14.7875 14.5 14.575 14.5 14.275ZM14.5 11.525C14.5 11.375 14.5542 11.2208 14.6625 11.0625C14.7708 10.9042 14.8917 10.8 15.025 10.75C15.5083 10.5833 15.9917 10.4583 16.475 10.375C16.9583 10.2917 17.4667 10.25 18 10.25C18.3333 10.25 18.6625 10.2708 18.9875 10.3125C19.3125 10.3542 19.6333 10.4083 19.95 10.475C20.1 10.5083 20.2292 10.5917 20.3375 10.725C20.4458 10.8583 20.5 11.0083 20.5 11.175C20.5 11.4583 20.4083 11.6667 20.225 11.8C20.0417 11.9333 19.8083 11.9667 19.525 11.9C19.2917 11.85 19.0458 11.8125 18.7875 11.7875C18.5292 11.7625 18.2667 11.75 18 11.75C17.5667 11.75 17.1417 11.7917 16.725 11.875C16.3083 11.9583 15.9083 12.0667 15.525 12.2C15.225 12.3167 14.9792 12.3083 14.7875 12.175C14.5958 12.0417 14.5 11.825 14.5 11.525Z" fill="#4E46DC"/>
</g>
</g>
</svg>
